<?xml version="1.0" standalone="no"?>
<!DOCTYPE svg PUBLIC "-//W3C//DTD SVG 20010904//EN"
 "http://www.w3.org/TR/2001/REC-SVG-20010904/DTD/svg10.dtd">
<svg version="1.0" xmlns="http://www.w3.org/2000/svg"
 width="5400.000000pt" height="5400.000000pt" viewBox="0 0 5400.000000 5400.000000"
 preserveAspectRatio="xMidYMid meet">
<metadata>
Created by potrace 1.11, written by Peter Selinger 2001-2013
</metadata>
<g transform="translate(0.000000,5400.000000) scale(0.100000,-0.100000)"
fill="#000000" stroke="none">
<path d="M13147 40983 c-1 -1 -42 -4 -92 -7 -49 -4 -101 -8 -115 -11 -14 -2
-45 -6 -70 -9 -43 -6 -121 -19 -185 -31 -56 -11 -224 -55 -252 -66 -15 -6 -37
-13 -47 -15 -71 -14 -348 -136 -492 -217 -108 -61 -340 -219 -454 -311 -84
-67 -272 -253 -341 -336 -96 -117 -239 -318 -239 -336 0 -4 -6 -15 -14 -23
-51 -57 -220 -416 -288 -611 -38 -110 -262 -859 -294 -982 -2 -10 -6 -26 -8
-35 -3 -10 -30 -108 -61 -218 -31 -110 -58 -207 -60 -215 -1 -8 -22 -85 -45
-170 -23 -85 -44 -162 -46 -170 -2 -8 -14 -55 -28 -105 -13 -49 -38 -142 -54
-205 -17 -63 -49 -185 -72 -270 -23 -85 -52 -195 -65 -245 -13 -49 -40 -151
-60 -225 -20 -74 -38 -142 -40 -150 -3 -8 -20 -73 -40 -145 -20 -71 -47 -173
-61 -225 -14 -52 -41 -149 -59 -215 -31 -109 -58 -207 -116 -425 -11 -41 -36
-131 -55 -200 -33 -121 -163 -595 -168 -615 -1 -5 -5 -19 -9 -30 -3 -11 -8
-31 -11 -45 -4 -20 -62 -231 -191 -700 -2 -8 -21 -76 -41 -150 -33 -125 -77
-286 -109 -405 -8 -27 -23 -84 -34 -125 -11 -41 -32 -118 -46 -170 -14 -52
-28 -102 -30 -110 -2 -8 -29 -107 -60 -220 -94 -343 -206 -754 -210 -770 -4
-20 -92 -346 -105 -390 -11 -37 -119 -432 -165 -605 -15 -55 -34 -125 -42
-155 -8 -30 -16 -62 -18 -70 -5 -21 -146 -540 -206 -760 -28 -102 -52 -193
-54 -202 -3 -15 -154 -578 -186 -693 -6 -22 -15 -49 -19 -61 l-8 -21 -1759 -1
c-2115 -2 -2491 -6 -2783 -27 -154 -11 -380 -39 -480 -60 -14 -3 -38 -8 -55
-11 -123 -21 -325 -79 -445 -126 -107 -43 -260 -116 -295 -142 -16 -13 -37
-25 -45 -28 -73 -27 -327 -261 -514 -474 -69 -79 -197 -251 -230 -310 -9 -16
-26 -45 -38 -64 -50 -84 -122 -232 -163 -334 -39 -101 -99 -287 -109 -340 -2
-12 -9 -39 -14 -61 -6 -22 -13 -53 -16 -70 -17 -100 -27 -174 -32 -219 -2 -28
-6 -71 -9 -96 -6 -61 -6 -278 0 -370 26 -409 169 -853 382 -1182 38 -60 153
-217 183 -252 324 -376 700 -631 1157 -785 86 -29 252 -74 318 -85 17 -3 55
-10 85 -16 30 -5 80 -12 110 -14 30 -3 82 -8 115 -11 88 -9 6339 -10 6480 -2
66 4 138 9 160 12 22 2 68 7 103 10 35 2 91 9 125 15 34 5 80 12 102 16 43 6
220 42 245 49 8 2 42 11 75 20 33 9 101 30 150 47 350 121 640 304 911 573
189 188 316 369 448 639 162 331 261 620 485 1416 108 386 203 725 207 743 2
9 6 25 8 35 6 24 183 667 201 727 28 100 177 657 181 682 3 15 7 30 10 35 3 4
20 66 38 136 19 70 48 181 66 247 17 66 34 129 36 140 2 11 10 43 19 70 8 28
23 83 34 124 11 40 22 75 24 77 1 2 30 -88 64 -199 34 -111 93 -308 133 -437
39 -129 93 -307 120 -395 27 -88 73 -241 103 -340 31 -99 71 -232 91 -295 19
-63 68 -225 109 -360 42 -135 99 -321 127 -415 28 -93 128 -420 221 -725 94
-305 183 -598 199 -650 16 -52 43 -140 60 -195 18 -55 35 -113 40 -130 4 -16
20 -68 35 -115 14 -47 48 -157 75 -245 27 -88 63 -205 80 -260 18 -55 34 -109
37 -120 3 -11 26 -85 50 -165 25 -80 60 -197 79 -260 20 -63 49 -160 67 -215
17 -55 32 -104 33 -110 3 -13 65 -216 159 -520 40 -132 135 -440 210 -685 75
-245 188 -611 250 -815 148 -482 183 -597 205 -670 10 -33 62 -202 115 -375
54 -173 103 -335 110 -360 25 -88 195 -632 199 -639 3 -4 7 -18 10 -32 3 -13
18 -67 35 -119 16 -52 68 -221 116 -375 47 -154 107 -345 132 -425 25 -80 67
-215 93 -300 27 -85 94 -301 150 -480 94 -302 238 -766 280 -905 10 -33 43
-143 74 -245 31 -102 59 -192 61 -200 2 -8 23 -78 45 -155 23 -77 60 -203 82
-280 21 -77 40 -144 42 -150 2 -5 6 -23 10 -40 18 -68 98 -362 105 -385 5 -14
21 -70 36 -125 244 -890 508 -1503 794 -1845 25 -30 57 -68 71 -85 193 -232
496 -479 795 -644 171 -95 449 -204 597 -235 13 -3 34 -7 48 -10 79 -18 194
-36 290 -46 77 -8 499 -6 535 3 11 2 47 8 80 11 164 19 381 71 570 136 111 39
381 164 485 226 49 29 215 142 251 171 148 120 283 250 379 362 25 29 50 58
55 65 91 104 231 323 323 503 74 144 181 437 207 563 38 185 52 241 81 325 20
55 37 107 39 115 2 8 13 42 25 75 12 33 23 67 25 75 2 8 24 83 50 165 25 83
86 292 136 465 112 393 199 678 330 1090 17 52 32 102 34 110 2 8 36 116 76
240 39 124 81 259 94 300 13 41 48 156 79 255 32 99 73 232 93 295 19 63 38
122 41 130 3 8 6 20 8 25 1 6 32 105 69 220 37 116 68 215 69 220 1 6 7 24 13
40 9 24 35 107 49 160 2 9 152 484 310 985 31 96 65 204 77 240 12 36 22 67
22 70 1 3 5 16 9 30 4 14 32 104 63 200 30 96 59 186 63 200 5 14 32 99 60
190 29 91 69 219 90 285 21 66 68 215 105 330 37 116 73 230 82 255 8 25 16
52 18 60 2 8 14 49 28 90 14 41 48 149 77 240 28 91 55 176 60 190 5 14 43
132 84 263 71 222 107 335 301 942 42 132 94 294 115 360 84 262 142 441 220
685 45 140 87 271 93 290 6 19 12 37 12 40 2 9 116 362 135 420 17 48 113 348
242 750 22 69 55 172 75 230 19 58 36 112 38 120 2 8 12 42 22 75 l19 60 32
-100 c17 -55 46 -152 66 -215 19 -63 55 -180 80 -260 24 -80 60 -197 80 -260
62 -205 246 -803 266 -865 11 -33 54 -172 95 -310 85 -280 134 -437 175 -570
41 -130 81 -261 155 -505 35 -118 69 -228 75 -245 6 -16 13 -37 15 -45 3 -15
29 -101 89 -295 19 -60 67 -216 106 -345 92 -303 78 -255 217 -705 13 -44 28
-93 32 -110 5 -16 32 -106 61 -200 64 -212 102 -335 197 -645 41 -135 86 -281
99 -325 14 -44 26 -87 29 -95 4 -17 63 -212 106 -352 17 -54 31 -101 31 -105
1 -5 7 -26 14 -48 43 -138 241 -785 249 -815 2 -8 4 -15 5 -15 1 0 3 -7 5 -15
2 -8 37 -127 78 -265 42 -137 125 -414 185 -615 61 -201 115 -381 120 -400 6
-19 29 -96 52 -170 23 -74 47 -155 54 -180 7 -25 34 -117 60 -205 26 -88 49
-169 51 -179 3 -10 9 -33 14 -50 6 -17 19 -66 31 -109 11 -42 29 -112 41 -155
11 -42 23 -84 25 -92 7 -26 42 -162 63 -243 11 -43 46 -171 77 -285 31 -114
57 -214 59 -222 8 -34 129 -443 162 -545 126 -395 243 -704 365 -965 48 -102
114 -235 128 -260 5 -8 37 -64 71 -125 85 -150 241 -382 304 -451 5 -7 26 -31
45 -55 63 -79 223 -234 330 -319 375 -299 818 -491 1300 -565 170 -26 212 -29
415 -29 230 -1 368 10 505 39 14 3 39 8 55 11 59 10 229 56 262 69 18 8 33 12
33 10 0 -10 256 102 360 157 284 150 536 357 756 618 92 109 232 305 257 360
4 8 17 31 28 50 41 67 108 206 153 317 36 87 138 413 161 513 2 8 12 44 23 80
11 36 39 135 62 220 54 204 119 424 187 640 49 155 89 286 97 315 1 6 9 30 16
55 7 25 15 50 16 55 1 6 21 73 44 150 23 77 48 160 55 185 7 25 32 108 54 185
23 77 62 208 86 290 23 83 59 204 78 270 38 128 62 209 133 455 25 85 68 232
95 325 27 94 51 177 54 185 2 8 42 148 90 310 47 162 87 302 89 310 2 8 27 96
56 195 28 99 69 241 90 315 77 273 261 917 275 965 17 56 16 54 84 295 27 96
82 288 121 425 39 138 73 257 75 265 2 8 31 114 65 235 34 121 63 227 65 235
5 20 99 356 124 440 10 36 65 232 121 435 56 204 116 417 132 475 16 58 32
114 34 125 6 24 7 28 23 85 7 25 15 52 17 60 2 8 14 52 28 98 13 45 24 85 24
88 0 2 8 30 17 62 10 31 18 64 20 72 2 8 31 116 65 240 35 124 73 263 85 310
13 47 51 186 85 310 34 124 63 230 64 235 7 28 21 80 48 175 16 58 31 112 33
120 3 17 104 391 225 835 45 165 83 307 85 315 2 8 11 42 20 75 9 33 18 67 20
75 2 8 13 50 25 92 11 43 23 85 25 95 6 25 14 54 90 338 37 138 69 258 70 267
2 9 11 41 20 70 8 29 59 217 111 418 53 201 100 371 104 379 5 9 11 -6 18 -40
6 -30 18 -83 27 -119 9 -36 19 -76 21 -90 8 -40 142 -576 171 -680 102 -374
136 -488 230 -770 111 -335 217 -593 362 -889 100 -203 297 -539 323 -549 4
-2 8 -8 8 -13 0 -5 24 -41 52 -81 349 -485 789 -858 1243 -1055 130 -57 309
-116 418 -138 10 -2 26 -6 35 -9 9 -3 33 -8 52 -11 19 -3 46 -8 60 -10 34 -7
75 -11 215 -25 66 -6 131 -13 145 -15 27 -4 144 -13 285 -21 103 -6 600 -5
1100 1 845 12 2165 14 2171 4 3 -6 6 -339 6 -740 0 -401 2 -729 4 -729 2 0 21
11 42 23 20 13 57 35 82 49 64 36 288 165 470 270 85 50 229 133 320 185 91
52 172 98 180 103 45 27 128 76 145 85 27 15 128 74 320 185 88 51 176 101
195 112 19 11 78 45 130 76 52 31 97 57 100 57 3 0 32 16 65 36 65 39 188 111
246 144 52 29 321 185 339 196 8 5 121 70 250 143 129 74 240 138 246 143 5 4
23 15 40 24 16 8 106 60 199 114 270 156 423 244 525 303 52 30 111 64 130 75
37 21 337 194 587 339 83 48 167 96 185 107 18 10 62 36 98 56 36 21 76 44 90
52 14 8 46 26 71 41 25 15 127 74 228 132 100 58 196 113 214 124 170 99 339
196 342 196 2 0 44 25 94 55 50 30 92 55 95 55 2 0 51 28 108 62 56 34 112 66
123 72 135 73 693 402 689 407 -2 4 -88 56 -191 115 -104 59 -285 164 -403
232 -118 69 -287 167 -375 217 -88 51 -218 126 -290 167 -71 41 -206 119 -300
173 -93 54 -187 109 -207 122 -21 12 -40 23 -43 23 -3 0 -22 11 -43 23 -20 13
-57 35 -82 49 -25 14 -160 92 -300 173 -429 249 -444 257 -475 275 -194 111
-757 437 -780 451 -16 10 -37 22 -45 26 -8 4 -78 43 -155 88 -271 158 -541
313 -590 340 -27 15 -57 34 -66 41 -8 8 -19 14 -23 14 -5 0 -51 26 -104 57
-54 32 -110 65 -127 74 -39 21 -136 77 -155 89 -8 5 -85 49 -170 98 -319 185
-476 275 -505 293 -16 10 -46 27 -65 37 -31 17 -350 200 -585 337 -104 61
-523 303 -575 333 -79 45 -237 136 -267 154 l-31 19 -1 -788 c0 -434 0 -809
-1 -834 l0 -47 -705 1 -705 0 -34 111 c-80 257 -218 716 -371 1231 -87 296
-122 414 -155 520 -10 33 -60 200 -110 370 -50 171 -100 337 -110 370 -10 33
-30 101 -45 150 -15 50 -31 104 -36 120 -17 54 -80 269 -89 300 -7 27 -28 98
-139 475 -16 52 -49 165 -74 250 -25 85 -58 196 -72 245 -52 176 -156 530
-160 545 -2 8 -26 92 -54 185 -27 94 -75 258 -106 365 -31 107 -69 238 -85
290 -15 52 -30 104 -33 115 -3 11 -28 97 -55 190 -47 158 -85 292 -301 1040
-45 154 -88 303 -96 330 -9 28 -43 145 -76 260 -33 116 -82 284 -108 375 -105
358 -222 764 -271 935 -28 99 -57 203 -65 230 -9 28 -17 59 -20 70 -2 11 -13
52 -24 90 -17 59 -53 194 -67 245 -2 8 -15 58 -30 110 -14 52 -27 105 -30 117
-2 12 -8 33 -13 45 -5 13 -9 28 -10 33 -4 21 -15 64 -48 190 -19 72 -37 137
-38 145 -2 8 -13 47 -25 85 -12 39 -22 75 -24 80 -75 282 -204 624 -332 880
-99 199 -116 229 -202 355 -316 462 -776 822 -1307 1023 -101 38 -268 89 -333
102 -9 1 -35 8 -57 13 -22 6 -74 16 -115 22 -41 6 -86 14 -100 16 -40 7 -258
18 -340 18 -79 -1 -255 -12 -280 -19 -8 -2 -35 -6 -60 -9 -199 -26 -483 -112
-704 -214 -183 -85 -376 -207 -547 -344 -110 -88 -308 -280 -374 -363 -22 -27
-49 -59 -60 -71 -161 -170 -264 -333 -370 -584 -26 -63 -52 -124 -56 -135 -37
-88 -155 -476 -174 -573 -1 -9 -8 -35 -13 -57 -6 -22 -13 -51 -16 -65 -2 -14
-14 -63 -26 -110 -12 -47 -24 -93 -26 -103 -2 -11 -21 -92 -43 -180 -22 -89
-42 -173 -45 -187 -3 -14 -16 -70 -30 -125 -30 -123 -94 -386 -136 -560 -17
-71 -44 -182 -60 -245 -16 -63 -31 -126 -34 -140 -3 -14 -23 -97 -45 -185 -45
-182 -121 -493 -126 -515 -7 -33 -138 -561 -161 -650 -25 -97 -163 -653 -169
-680 -1 -8 -8 -35 -15 -60 -7 -25 -13 -52 -15 -60 -2 -8 -15 -62 -30 -120 -14
-58 -28 -116 -31 -130 -2 -14 -7 -32 -11 -40 -3 -8 -9 -31 -13 -50 -4 -19 -17
-71 -29 -116 -12 -45 -23 -90 -25 -100 -3 -15 -90 -364 -122 -489 -88 -348
-167 -657 -174 -680 -5 -16 -11 -41 -14 -55 -5 -26 -83 -332 -142 -560 -20
-74 -37 -142 -39 -150 -2 -8 -26 -105 -55 -215 -28 -110 -74 -288 -101 -395
-28 -107 -66 -256 -86 -330 -19 -74 -37 -146 -39 -159 -3 -13 -9 -32 -15 -43
-5 -10 -7 -18 -5 -18 3 0 1 -11 -4 -25 -5 -14 -12 -36 -14 -48 -2 -12 -12 -51
-21 -87 -9 -36 -19 -72 -21 -80 -2 -8 -8 -33 -14 -55 -6 -22 -12 -48 -15 -57
-2 -9 -15 -61 -30 -115 -15 -54 -28 -105 -30 -113 -4 -22 -91 -353 -132 -505
-19 -71 -39 -148 -44 -170 -6 -22 -39 -150 -75 -285 -35 -135 -76 -290 -90
-345 -14 -55 -30 -113 -35 -130 -5 -16 -39 -142 -75 -280 -36 -137 -90 -342
-120 -454 -51 -188 -90 -335 -99 -371 -2 -8 -38 -143 -80 -300 -42 -157 -78
-292 -80 -300 -4 -16 -59 -218 -100 -365 -13 -49 -33 -124 -44 -165 -10 -41
-74 -275 -141 -520 -146 -535 -150 -550 -155 -575 -3 -11 -11 -42 -20 -70 -15
-51 -128 -460 -164 -595 -11 -41 -32 -118 -46 -170 -15 -52 -29 -102 -31 -110
-12 -51 -22 -74 -27 -60 -10 27 -55 173 -82 265 -15 50 -30 101 -35 115 -5 14
-18 59 -30 100 -12 41 -26 84 -30 95 -8 19 -197 637 -225 735 -7 25 -36 122
-65 215 -29 94 -60 197 -70 230 -10 33 -30 98 -45 145 -14 47 -30 99 -34 115
-5 17 -36 120 -70 230 -68 218 -91 296 -176 575 -31 102 -67 219 -80 260 -13
41 -35 116 -50 165 -15 50 -33 110 -42 135 -8 25 -18 59 -23 75 -4 17 -24 84
-45 150 -76 247 -86 280 -90 295 -2 8 -8 29 -13 45 -10 29 -46 149 -118 383
-20 64 -54 176 -76 247 -21 72 -61 202 -88 290 -26 88 -65 214 -85 280 -21 66
-38 125 -39 130 -1 6 -5 15 -8 21 -4 6 -9 21 -12 35 -3 13 -24 85 -47 159 -58
191 -73 240 -112 370 -35 115 -176 575 -202 660 -41 130 -107 347 -110 360 -3
8 -16 53 -30 100 -15 47 -35 112 -45 145 -20 66 -150 494 -206 675 -19 63 -50
165 -69 225 -18 61 -54 175 -78 255 -25 80 -56 183 -71 230 -14 47 -62 204
-106 350 -45 146 -97 317 -116 380 -19 63 -50 165 -69 225 -19 61 -61 198 -94
305 -33 107 -114 373 -180 590 -66 217 -154 512 -195 656 -152 529 -257 799
-409 1054 -48 80 -128 200 -151 227 -19 21 -31 37 -46 59 -8 12 -42 52 -75 89
-254 286 -544 493 -939 670 -112 50 -398 139 -511 159 -16 3 -39 8 -50 10 -25
5 -148 24 -195 30 -187 26 -489 26 -669 0 -207 -29 -327 -52 -408 -79 -23 -8
-52 -16 -65 -19 -77 -15 -294 -103 -441 -178 -114 -58 -355 -212 -407 -260
-14 -13 -45 -39 -70 -59 -191 -155 -469 -493 -632 -770 -75 -126 -180 -360
-216 -479 -22 -73 -136 -431 -187 -585 -28 -88 -59 -185 -69 -215 -9 -30 -43
-136 -76 -235 -32 -99 -101 -315 -155 -480 -53 -165 -104 -322 -113 -350 -9
-27 -17 -52 -17 -55 -1 -5 -134 -418 -165 -510 -18 -54 -82 -253 -180 -555
-26 -82 -87 -271 -135 -420 -48 -148 -103 -319 -122 -380 -19 -60 -37 -117
-40 -125 -4 -8 -7 -17 -8 -20 -4 -15 -199 -623 -230 -715 -13 -38 -53 -164
-90 -280 -37 -115 -80 -248 -95 -295 -15 -47 -50 -155 -78 -240 -27 -85 -71
-220 -97 -300 -26 -80 -48 -149 -49 -155 -1 -5 -7 -23 -13 -40 -6 -16 -26 -75
-43 -130 -32 -102 -184 -575 -239 -745 -18 -52 -33 -102 -35 -110 -3 -8 -37
-114 -76 -235 -39 -121 -89 -276 -111 -345 -22 -69 -46 -143 -53 -165 -8 -22
-49 -148 -91 -280 -42 -132 -116 -364 -165 -515 -49 -151 -101 -313 -116 -360
-14 -47 -39 -123 -54 -170 -16 -47 -65 -200 -110 -340 -45 -140 -101 -316
-125 -390 -43 -134 -58 -180 -60 -190 -1 -3 -4 -12 -8 -20 -3 -8 -29 -89 -57
-180 -29 -91 -67 -210 -85 -265 -18 -55 -63 -194 -100 -310 -127 -399 -144
-451 -193 -605 -28 -85 -80 -249 -118 -365 l-67 -210 -34 105 c-18 58 -35 112
-36 120 -2 8 -14 47 -26 85 -12 39 -24 77 -26 85 -2 8 -38 125 -80 260 -42
135 -78 252 -80 260 -4 18 -51 172 -326 1070 -116 377 -224 730 -240 785 -17
55 -44 141 -59 190 -50 161 -271 885 -332 1090 -32 110 -63 209 -68 220 -4 11
-15 45 -24 75 -9 30 -57 188 -106 350 -50 162 -92 303 -95 313 -2 10 -23 78
-46 150 -40 128 -50 161 -90 297 -11 36 -24 79 -29 95 -51 166 -133 433 -136
445 -1 8 -64 215 -139 460 -75 245 -165 542 -201 660 -36 118 -113 370 -171
560 -57 190 -120 397 -139 460 -19 63 -41 135 -49 160 -8 25 -28 92 -46 150
-17 58 -40 134 -51 170 -11 36 -32 108 -48 160 -15 52 -74 246 -130 430 -165
544 -300 989 -327 1080 -13 47 -43 144 -65 215 -22 72 -41 137 -43 145 -2 8
-12 44 -24 80 -26 83 -101 330 -105 350 -2 8 -18 62 -36 120 -17 58 -45 149
-61 203 -16 53 -42 142 -59 197 -16 55 -43 144 -59 198 -16 53 -46 151 -66
217 -20 66 -39 131 -41 144 -3 14 -7 28 -10 32 -2 4 -17 52 -33 106 -16 54
-43 145 -61 203 -17 58 -33 112 -35 120 -7 28 -47 165 -53 180 -3 8 -6 20 -7
25 -2 6 -19 64 -40 130 -20 66 -46 152 -57 190 -31 112 -35 125 -68 235 -18
58 -40 134 -50 170 -36 126 -101 346 -116 391 -8 25 -16 54 -19 65 -12 60
-174 602 -217 729 -126 374 -268 665 -451 923 -33 48 -63 89 -67 92 -3 3 -25
30 -49 60 -75 93 -291 301 -396 381 -189 144 -334 229 -565 332 -163 73 -436
147 -635 173 -27 3 -57 8 -66 9 -55 11 -444 26 -452 18z"/>
</g>
</svg>
