<?xml version="1.0" standalone="no"?>
<!DOCTYPE svg PUBLIC "-//W3C//DTD SVG 20010904//EN"
 "http://www.w3.org/TR/2001/REC-SVG-20010904/DTD/svg10.dtd">
<svg version="1.0" xmlns="http://www.w3.org/2000/svg"
 width="700.000000pt" height="700.000000pt" viewBox="0 0 700.000000 700.000000"
 preserveAspectRatio="xMidYMid meet">
<metadata>
Created by potrace 1.11, written by Peter Selinger 2001-2013
</metadata>
<g transform="translate(0.000000,700.000000) scale(0.100000,-0.100000)"
fill="#000000" stroke="none">
<path d="M3270 5529 c-683 -79 -1287 -501 -1593 -1114 -137 -273 -203 -535
-214 -840 -29 -809 410 -1545 1137 -1905 262 -130 526 -196 825 -207 349 -13
666 55 975 208 597 296 993 827 1115 1499 12 68 19 171 22 358 l5 262 -291 0
-291 0 0 -170 c0 -206 -12 -331 -46 -470 -135 -549 -573 -967 -1133 -1080
-639 -129 -1301 199 -1587 785 -61 126 -95 226 -126 369 -31 146 -31 408 1
556 62 291 192 538 391 740 247 252 558 398 919 431 160 15 316 2 482 -40 147
-37 262 -87 460 -201 88 -51 161 -91 163 -89 15 18 287 501 284 504 -16 16
-353 201 -429 235 -190 86 -413 147 -621 169 -112 13 -339 12 -448 0z"/>
<path d="M3333 3769 c-48 -23 -89 -67 -110 -116 -10 -25 -13 -111 -13 -383 l0
-350 220 0 220 0 0 215 0 215 508 2 507 3 3 218 2 217 -647 0 c-638 0 -649 0
-690 -21z"/>
</g>
</svg>
